<svg xmlns="http://www.w3.org/2000/svg" width="100%" height="100%" viewBox="0 0 1500 1200">
			<path id="animatedPath" class=""
				d="M 294.58,445.68 C 295.86 444.47, 296.69 442.40, 298.55 438.53 C 300.41 434.66, 301.34 432.31, 303.88 426.32 C 306.43 420.34, 308.11 416.22, 311.26 408.58 C 314.41 400.95, 316.18 396.86, 319.65 388.15 C 323.13 379.44, 325.06 374.43, 328.64 365.04 C 332.22 355.66, 334.20 350.60, 337.56 341.20 C 340.91 331.81, 342.73 326.68, 345.42 318.07 C 348.11 309.46, 349.36 305.09, 351.00 298.13 C 352.64 291.18, 353.52 287.97, 353.62 283.31 C 353.72 278.64, 353.33 276.49, 351.52 274.83 C 349.70 273.17, 347.42 272.88, 344.53 275.00 C 341.65 277.12, 340.28 279.36, 337.10 285.42 C 333.91 291.48, 332.13 295.61, 328.61 305.28 C 325.10 314.94, 323.02 321.08, 319.52 333.75 C 316.02 346.41, 314.08 353.89, 311.12 368.60 C 308.17 383.32, 306.99 391.78, 304.75 407.32 C 302.51 422.87, 301.36 431.61, 299.92 446.34 C 298.47 461.07, 297.84 468.50, 297.53 480.98 C 297.22 493.46, 297.51 499.38, 298.36 508.75 C 299.22 518.12, 299.71 522.27, 301.82 527.82 C 303.92 533.37, 305.41 535.24, 308.89 536.49 C 312.36 537.74, 315.03 536.74, 319.19 534.04 C 323.34 531.35, 325.34 528.58, 329.66 523.01 C 333.97 517.44, 336.38 513.37, 340.75 506.18 C 345.12 498.99, 347.42 494.45, 351.49 487.07 C 355.55 479.68, 357.51 475.72, 361.07 469.24 C 364.64 462.76, 366.41 459.52, 369.32 454.67 C 372.23 449.82, 374.01 447.70, 375.62 445.00 C 377.23 442.30, 377.09 441.11, 377.37 441.15 C 377.65 441.20, 376.84 442.04, 377.03 445.22 C 377.22 448.41, 377.83 451.34, 378.30 457.08 C 378.78 462.82, 378.86 466.82, 379.40 473.94 C 379.94 481.06, 379.81 485.35, 381.00 492.67 C 382.19 499.99, 382.88 504.39, 385.36 510.52 C 387.85 516.66, 389.51 519.72, 393.42 523.35 C 397.34 526.98, 399.71 528.05, 404.94 528.67 C 410.18 529.29, 413.49 529.04, 419.59 526.46 C 425.68 523.87, 429.08 521.36, 435.43 515.75 C 441.78 510.14, 445.22 505.99, 451.36 498.41 C 457.50 490.82, 460.79 486.24, 466.13 477.84 C 471.48 469.44, 474.25 464.65, 478.08 456.39 C 481.92 448.13, 483.59 443.69, 485.31 436.54 C 487.02 429.38, 487.32 425.99, 486.65 420.61 C 485.99 415.22, 484.93 412.56, 482.00 409.61 C 479.06 406.67, 476.47 405.70, 471.98 405.88 C 467.49 406.06, 464.52 407.20, 459.56 410.51 C 454.60 413.83, 451.67 416.43, 447.18 422.46 C 442.68 428.50, 440.38 432.64, 437.08 440.69 C 433.79 448.75, 432.22 453.63, 430.71 462.75 C 429.20 471.88, 428.60 477.27, 429.52 486.32 C 430.43 495.36, 431.82 500.28, 435.31 507.98 C 438.80 515.68, 441.14 519.56, 446.96 524.82 C 452.78 530.07, 456.58 532.35, 464.40 534.24 C 472.22 536.14, 477.86 535.32, 486.07 534.28 C 494.28 533.24, 498.81 531.43, 505.45 529.04 C 512.10 526.65, 516.73 524.09, 519.29 522.32 C 521.85 520.54, 521.17 519.27, 518.24 520.17 C 515.31 521.06, 511.14 524.45, 504.64 526.80 C 498.15 529.16, 493.71 530.89, 485.76 531.95 C 477.82 533.02, 472.38 533.85, 464.91 532.11 C 457.43 530.37, 453.92 528.24, 448.38 523.24 C 442.84 518.25, 440.57 514.55, 437.21 507.12 C 433.85 499.69, 432.45 494.91, 431.57 486.11 C 430.69 477.31, 431.28 472.01, 432.81 463.11 C 434.35 454.21, 435.94 449.39, 439.25 441.60 C 442.56 433.80, 444.95 429.81, 449.37 424.13 C 453.78 418.45, 456.77 416.16, 461.33 413.20 C 465.88 410.24, 468.49 409.59, 472.16 409.34 C 475.84 409.08, 477.35 409.59, 479.70 411.91 C 482.05 414.24, 483.24 416.15, 483.91 420.97 C 484.58 425.79, 484.59 429.10, 483.05 436.02 C 481.51 442.93, 479.94 447.38, 476.22 455.53 C 472.50 463.68, 469.75 468.46, 464.45 476.77 C 459.15 485.07, 455.84 489.63, 449.71 497.06 C 443.59 504.49, 440.08 508.55, 433.84 513.93 C 427.61 519.31, 424.25 521.57, 418.53 523.94 C 412.82 526.31, 409.91 526.32, 405.29 525.78 C 400.66 525.23, 398.87 524.48, 395.41 521.22 C 391.95 517.96, 390.30 515.27, 387.97 509.47 C 385.64 503.67, 384.84 499.38, 383.77 492.24 C 382.69 485.09, 382.89 480.82, 382.58 473.75 C 382.26 466.67, 382.43 462.69, 382.20 456.84 C 381.97 450.99, 382.32 447.97, 381.41 444.50 C 380.51 441.04, 379.46 439.85, 377.68 439.51 C 375.89 439.17, 374.67 440.07, 372.48 442.80 C 370.29 445.54, 369.45 448.15, 366.73 453.20 C 364.02 458.25, 362.36 461.52, 358.89 468.06 C 355.42 474.60, 353.46 478.56, 349.39 485.91 C 345.31 493.25, 342.94 497.75, 338.53 504.81 C 334.12 511.86, 331.54 515.85, 327.33 521.19 C 323.11 526.53, 320.96 528.98, 317.46 531.51 C 313.95 534.05, 312.51 534.77, 309.80 533.87 C 307.09 532.97, 305.84 532.08, 303.90 527.02 C 301.95 521.96, 301.06 517.78, 300.07 508.58 C 299.08 499.38, 298.71 493.43, 298.94 481.01 C 299.16 468.59, 299.77 461.17, 301.18 446.47 C 302.59 431.76, 303.74 423.02, 305.99 407.50 C 308.25 391.99, 309.43 383.54, 312.45 368.87 C 315.47 354.21, 317.44 346.76, 321.08 334.19 C 324.72 321.62, 326.91 315.51, 330.63 306.04 C 334.35 296.57, 336.43 292.49, 339.68 286.84 C 342.94 281.20, 344.93 279.86, 346.93 277.79 C 348.93 275.73, 348.97 275.44, 349.69 276.52 C 350.41 277.60, 350.73 278.98, 350.52 283.20 C 350.31 287.41, 350.05 290.76, 348.64 297.61 C 347.23 304.47, 346.04 308.88, 343.46 317.47 C 340.89 326.06, 339.08 331.19, 335.75 340.56 C 332.43 349.94, 330.45 354.99, 326.83 364.35 C 323.21 373.71, 321.25 378.70, 317.67 387.34 C 314.08 395.99, 312.23 400.04, 308.90 407.57 C 305.56 415.11, 303.72 419.16, 300.99 425.03 C 298.25 430.91, 296.97 433.07, 295.21 436.97 C 293.45 440.87, 292.31 442.80, 292.19 444.54 C 292.06 446.28, 293.31 446.88, 294.58 445.68"
				style="stroke: black; fill: black;"></path>
			<path
				d="M 570.16,304.72 C 569.15 306.03, 568.51 307.62, 567.47 311.99 C 566.43 316.36, 566.11 319.07, 564.96 326.58 C 563.81 334.09, 563.02 339.11, 561.71 349.53 C 560.40 359.96, 559.66 366.05, 558.40 378.69 C 557.14 391.32, 556.59 398.86, 555.41 412.72 C 554.24 426.59, 553.34 434.21, 552.53 448.01 C 551.71 461.80, 551.43 469.24, 551.34 481.69 C 551.25 494.13, 551.20 500.54, 552.07 510.23 C 552.94 519.92, 553.42 524.21, 555.70 530.14 C 557.98 536.07, 559.59 538.49, 563.49 539.88 C 567.39 541.28, 570.07 540.54, 575.19 537.11 C 580.32 533.69, 583.15 530.55, 589.12 522.76 C 595.10 514.97, 598.53 509.55, 605.06 498.18 C 611.60 486.82, 615.26 479.57, 621.80 465.94 C 628.33 452.31, 631.86 444.35, 637.75 430.04 C 643.65 415.72, 646.59 407.86, 651.27 394.36 C 655.95 380.87, 658.04 373.90, 661.15 362.57 C 664.26 351.24, 665.38 346.07, 666.81 337.70 C 668.23 329.33, 668.73 325.97, 668.27 320.73 C 667.81 315.49, 666.93 313.02, 664.50 311.48 C 662.06 309.94, 659.67 310.23, 656.09 313.02 C 652.50 315.81, 650.53 318.56, 646.57 325.42 C 642.61 332.28, 640.41 337.05, 636.30 347.32 C 632.19 357.59, 629.67 363.97, 626.02 376.77 C 622.36 389.56, 620.54 397.31, 618.02 411.30 C 615.49 425.29, 614.38 433.02, 613.37 446.72 C 612.36 460.41, 612.07 467.59, 612.95 479.77 C 613.84 491.94, 614.70 498.10, 617.78 507.58 C 620.87 517.05, 623.11 521.33, 628.39 527.13 C 633.67 532.93, 637.17 534.81, 644.19 536.58 C 651.20 538.34, 655.39 537.98, 663.46 535.95 C 671.53 533.93, 676.17 531.61, 684.54 526.46 C 692.91 521.31, 697.54 517.53, 705.29 510.19 C 713.04 502.85, 716.94 497.98, 723.28 489.75 C 729.62 481.53, 732.70 476.84, 737.01 469.06 C 741.32 461.27, 743.18 457.36, 744.83 450.82 C 746.47 444.29, 746.49 441.13, 745.23 436.39 C 743.98 431.64, 742.23 429.43, 738.55 427.10 C 734.87 424.76, 732.00 424.10, 726.82 424.72 C 721.65 425.33, 718.25 426.63, 712.67 430.17 C 707.09 433.71, 703.96 436.61, 698.93 442.42 C 693.89 448.22, 691.01 452.06, 687.49 459.20 C 683.98 466.34, 682.46 470.72, 681.34 478.10 C 680.22 485.49, 680.22 489.67, 681.91 496.11 C 683.60 502.55, 685.45 505.97, 689.79 510.30 C 694.14 514.62, 697.45 516.14, 703.65 517.74 C 709.84 519.34, 713.74 519.53, 720.78 518.29 C 727.82 517.06, 731.95 515.35, 738.84 511.58 C 745.73 507.81, 749.56 505.07, 755.23 499.44 C 760.91 493.81, 763.76 490.13, 767.20 483.41 C 770.65 476.69, 771.74 472.68, 772.46 465.83 C 773.18 458.97, 772.70 455.26, 770.81 449.13 C 768.92 443.00, 766.89 439.90, 763.01 435.17 C 759.13 430.45, 756.21 428.50, 751.42 425.49 C 746.63 422.48, 743.64 421.43, 739.06 420.13 C 734.48 418.83, 731.91 418.79, 728.54 418.99 C 725.16 419.18, 723.95 419.94, 722.19 421.09 C 720.43 422.25, 720.03 423.60, 719.73 424.75 C 719.44 425.90, 720.27 426.52, 720.71 426.86 C 721.16 427.20, 721.68 426.65, 721.95 426.46 C 722.22 426.26, 721.63 426.21, 722.06 425.89 C 722.48 425.57, 722.72 425.27, 724.08 424.85 C 725.44 424.43, 726.03 424.01, 728.84 423.81 C 731.65 423.61, 733.95 422.95, 738.13 423.84 C 742.31 424.73, 745.20 425.63, 749.74 428.27 C 754.27 430.91, 757.08 432.71, 760.78 437.04 C 764.48 441.38, 766.42 444.23, 768.26 449.94 C 770.09 455.64, 770.60 459.10, 769.96 465.57 C 769.32 472.04, 768.33 475.87, 765.04 482.31 C 761.76 488.74, 759.01 492.31, 753.53 497.72 C 748.05 503.14, 744.29 505.79, 737.65 509.39 C 731.01 512.99, 727.00 514.57, 720.33 515.72 C 713.66 516.87, 710.05 516.60, 704.32 515.14 C 698.58 513.67, 695.66 512.34, 691.67 508.40 C 687.69 504.47, 685.96 501.44, 684.39 495.46 C 682.81 489.48, 682.72 485.51, 683.79 478.48 C 684.87 471.45, 686.31 467.17, 689.74 460.32 C 693.18 453.46, 696.06 449.72, 700.96 444.21 C 705.87 438.69, 709.03 435.99, 714.28 432.76 C 719.54 429.52, 722.72 428.60, 727.23 428.02 C 731.74 427.45, 733.79 428.05, 736.84 429.87 C 739.90 431.69, 741.36 433.05, 742.50 437.13 C 743.64 441.21, 743.99 444.07, 742.54 450.27 C 741.09 456.46, 739.38 460.42, 735.24 468.09 C 731.09 475.76, 728.05 480.47, 721.80 488.62 C 715.55 496.76, 711.66 501.59, 704.00 508.82 C 696.34 516.05, 691.71 519.74, 683.50 524.76 C 675.29 529.78, 670.71 531.96, 662.95 533.93 C 655.18 535.89, 651.31 536.20, 644.68 534.58 C 638.05 532.97, 634.84 531.37, 629.77 525.86 C 624.71 520.36, 622.42 516.30, 619.35 507.06 C 616.28 497.82, 615.33 491.71, 614.41 479.66 C 613.49 467.61, 613.75 460.44, 614.75 446.82 C 615.75 433.20, 616.84 425.47, 619.40 411.55 C 621.96 397.63, 623.80 389.91, 627.54 377.21 C 631.29 364.52, 633.89 358.17, 638.15 348.07 C 642.40 337.98, 644.82 333.28, 648.82 326.75 C 652.81 320.22, 655.26 318.04, 658.10 315.42 C 660.95 312.80, 661.50 312.56, 663.04 313.67 C 664.59 314.77, 665.42 316.19, 665.82 320.94 C 666.21 325.69, 666.21 329.16, 665.00 337.41 C 663.78 345.66, 662.72 350.88, 659.73 362.19 C 656.74 373.49, 654.67 380.46, 650.04 393.94 C 645.41 407.41, 642.47 415.27, 636.57 429.55 C 630.67 443.83, 627.14 451.78, 620.55 465.34 C 613.96 478.90, 610.24 486.12, 603.63 497.35 C 597.01 508.57, 593.44 513.93, 587.47 521.48 C 581.51 529.02, 578.44 531.86, 573.81 535.07 C 569.18 538.29, 567.54 538.69, 564.32 537.54 C 561.10 536.40, 559.81 534.86, 557.71 529.37 C 555.60 523.87, 554.78 519.59, 553.80 510.06 C 552.82 500.52, 552.80 494.09, 552.82 481.69 C 552.85 469.30, 553.11 461.86, 553.92 448.09 C 554.73 434.32, 555.63 426.69, 556.85 412.85 C 558.07 399.00, 558.66 391.46, 560.04 378.86 C 561.42 366.25, 562.23 360.18, 563.75 349.81 C 565.27 339.45, 566.24 334.45, 567.65 327.04 C 569.05 319.63, 569.79 317.07, 570.77 312.75 C 571.74 308.43, 572.63 307.04, 572.51 305.43 C 572.38 303.82, 571.17 303.41, 570.16 304.72"
				style="stroke: black; fill: black;"></path>
			<path
				d="M 916.40,411.80 C 915.63 412.46, 915.15 412.82, 914.70 415.26 C 914.26 417.70, 914.43 419.22, 914.15 423.99 C 913.88 428.76, 913.77 432.25, 913.33 439.11 C 912.89 445.97, 912.34 450.37, 911.95 458.29 C 911.56 466.21, 911.24 470.91, 911.38 478.70 C 911.51 486.50, 911.60 490.69, 912.62 497.25 C 913.65 503.81, 914.16 506.89, 916.51 511.49 C 918.85 516.10, 920.65 518.23, 924.35 520.26 C 928.05 522.30, 930.52 522.54, 935.02 521.67 C 939.53 520.79, 942.06 519.48, 946.88 515.90 C 951.70 512.32, 954.38 509.58, 959.12 503.77 C 963.85 497.96, 966.29 493.98, 970.55 486.87 C 974.81 479.76, 977.02 475.50, 980.40 468.21 C 983.77 460.93, 985.35 456.79, 987.44 450.46 C 989.52 444.13, 990.49 440.92, 990.83 436.56 C 991.16 432.20, 990.66 430.16, 989.12 428.66 C 987.58 427.16, 985.31 427.07, 983.14 429.05 C 980.97 431.03, 979.93 433.68, 978.27 438.55 C 976.61 443.41, 975.59 446.85, 974.85 453.39 C 974.11 459.94, 974.00 464.31, 974.59 471.28 C 975.17 478.24, 975.74 482.00, 977.76 488.22 C 979.78 494.44, 981.22 497.56, 984.67 502.36 C 988.13 507.15, 990.37 509.38, 995.04 512.18 C 999.70 514.98, 1002.74 515.98, 1008.01 516.35 C 1013.28 516.72, 1016.23 516.11, 1021.40 514.02 C 1026.56 511.94, 1029.20 510.19, 1033.83 505.92 C 1038.45 501.64, 1040.89 498.62, 1044.54 492.65 C 1048.20 486.68, 1049.70 482.95, 1052.11 476.07 C 1054.52 469.18, 1055.43 465.29, 1056.59 458.21 C 1057.74 451.13, 1057.97 447.19, 1057.88 440.65 C 1057.79 434.11, 1057.22 430.84, 1056.14 425.50 C 1055.06 420.16, 1054.03 417.65, 1052.48 413.96 C 1050.92 410.26, 1049.90 408.95, 1048.36 407.03 C 1046.83 405.11, 1045.77 404.69, 1044.79 404.36 C 1043.81 404.04, 1043.42 404.45, 1043.48 405.42 C 1043.54 406.38, 1044.01 407.16, 1045.08 409.19 C 1046.14 411.22, 1047.22 412.18, 1048.80 415.58 C 1050.39 418.99, 1051.75 421.18, 1053.01 426.21 C 1054.26 431.23, 1054.89 434.40, 1055.08 440.71 C 1055.28 447.03, 1055.08 450.90, 1053.98 457.79 C 1052.89 464.69, 1051.96 468.50, 1049.60 475.18 C 1047.23 481.86, 1045.71 485.47, 1042.15 491.17 C 1038.59 496.88, 1036.18 499.72, 1031.79 503.70 C 1027.40 507.67, 1024.92 509.18, 1020.21 511.06 C 1015.49 512.94, 1012.95 513.41, 1008.23 513.10 C 1003.52 512.78, 1000.88 511.97, 996.64 509.48 C 992.41 506.98, 990.29 505.05, 987.06 500.63 C 983.83 496.20, 982.39 493.25, 980.49 487.34 C 978.60 481.42, 978.01 477.75, 977.59 471.06 C 977.17 464.36, 977.46 460.08, 978.39 453.86 C 979.33 447.64, 980.67 444.39, 982.26 439.94 C 983.86 435.49, 985.35 433.62, 986.36 431.63 C 987.37 429.63, 987.11 429.05, 987.31 429.96 C 987.51 430.88, 987.87 432.27, 987.37 436.21 C 986.87 440.14, 986.64 443.44, 984.80 449.63 C 982.95 455.83, 981.43 459.99, 978.15 467.18 C 974.87 474.37, 972.64 478.61, 968.40 485.57 C 964.16 492.53, 961.64 496.43, 956.96 501.98 C 952.27 507.53, 949.51 510.06, 944.98 513.31 C 940.46 516.55, 938.13 517.43, 934.33 518.22 C 930.53 519.01, 929.01 518.88, 925.99 517.25 C 922.97 515.63, 921.36 514.18, 919.23 510.09 C 917.09 506.00, 916.35 503.10, 915.29 496.82 C 914.24 490.53, 914.07 486.33, 913.95 478.66 C 913.83 470.99, 914.15 466.31, 914.69 458.45 C 915.24 450.60, 915.89 446.21, 916.67 439.40 C 917.45 432.60, 917.97 429.15, 918.60 424.41 C 919.22 419.68, 919.80 418.21, 919.79 415.72 C 919.79 413.22, 919.25 412.73, 918.57 411.95 C 917.90 411.16, 917.17 411.14, 916.40 411.80"
				style="stroke: black; fill: black;"></path>
			<path
				d="M 1109.02,433.41 C 1108.19 432.45, 1106.86 431.72, 1104.48 431.38 C 1102.09 431.04, 1100.48 430.73, 1097.10 431.71 C 1093.72 432.69, 1091.32 433.58, 1087.58 436.29 C 1083.85 439.01, 1081.72 441.11, 1078.44 445.29 C 1075.15 449.47, 1073.32 451.96, 1071.16 457.21 C 1068.99 462.46, 1067.96 465.84, 1067.61 471.53 C 1067.25 477.21, 1067.58 480.48, 1069.39 485.61 C 1071.20 490.75, 1072.80 493.43, 1076.65 497.19 C 1080.49 500.95, 1083.30 502.61, 1088.62 504.42 C 1093.94 506.23, 1097.27 506.59, 1103.25 506.24 C 1109.24 505.89, 1112.69 505.12, 1118.54 502.65 C 1124.40 500.18, 1127.64 498.30, 1132.52 493.89 C 1137.40 489.48, 1139.75 486.35, 1142.96 480.60 C 1146.17 474.85, 1147.50 471.33, 1148.59 465.13 C 1149.68 458.92, 1149.59 455.65, 1148.42 449.58 C 1147.24 443.51, 1145.59 440.09, 1142.72 434.77 C 1139.85 429.46, 1137.62 426.83, 1134.07 423.00 C 1130.53 419.18, 1128.45 417.70, 1125.01 415.64 C 1121.58 413.58, 1119.37 412.68, 1116.90 412.72 C 1114.44 412.76, 1112.93 414.16, 1112.67 415.85 C 1112.40 417.53, 1112.94 419.63, 1115.57 421.15 C 1118.20 422.68, 1120.71 422.83, 1125.82 423.46 C 1130.92 424.09, 1134.37 424.09, 1141.10 424.30 C 1147.83 424.51, 1152.11 424.70, 1159.45 424.51 C 1166.79 424.32, 1170.74 423.66, 1177.81 423.35 C 1184.87 423.04, 1188.84 422.63, 1194.78 422.98 C 1200.71 423.32, 1203.68 423.72, 1207.48 425.08 C 1211.28 426.44, 1212.30 427.17, 1213.77 429.79 C 1215.24 432.42, 1215.20 433.96, 1214.82 438.21 C 1214.45 442.46, 1213.63 445.37, 1211.90 451.05 C 1210.17 456.74, 1208.75 460.30, 1206.18 466.63 C 1203.61 472.96, 1201.77 476.74, 1199.05 482.70 C 1196.32 488.65, 1194.58 491.93, 1192.57 496.41 C 1190.56 500.90, 1189.33 502.89, 1188.98 505.15 C 1188.64 507.40, 1189.72 508.33, 1190.85 507.68 C 1191.99 507.02, 1192.94 505.65, 1194.65 501.88 C 1196.37 498.11, 1197.10 494.81, 1199.42 488.84 C 1201.75 482.88, 1203.26 479.01, 1206.28 472.06 C 1209.30 465.10, 1211.24 460.86, 1214.53 454.07 C 1217.81 447.29, 1219.62 443.59, 1222.71 438.12 C 1225.81 432.65, 1227.19 430.33, 1230.00 426.70 C 1232.81 423.08, 1234.21 421.83, 1236.75 419.99 C 1239.28 418.14, 1240.58 417.87, 1242.65 417.48 C 1244.73 417.10, 1245.06 417.29, 1247.11 418.08 C 1249.17 418.86, 1250.34 420.11, 1252.93 421.39 C 1255.51 422.67, 1257.17 423.41, 1260.02 424.49 C 1262.87 425.57, 1264.55 426.37, 1267.17 426.77 C 1269.80 427.17, 1271.84 427.04, 1273.15 426.48 C 1274.47 425.92, 1274.59 425.03, 1273.76 423.95 C 1272.92 422.87, 1271.23 422.23, 1268.98 421.08 C 1266.73 419.93, 1265.21 419.31, 1262.51 418.19 C 1259.81 417.08, 1258.28 416.55, 1255.48 415.50 C 1252.67 414.45, 1251.25 413.45, 1248.48 412.94 C 1245.71 412.44, 1244.46 412.21, 1241.61 412.98 C 1238.76 413.74, 1237.07 414.39, 1234.22 416.75 C 1231.37 419.11, 1230.17 420.78, 1227.37 424.78 C 1224.58 428.78, 1223.30 431.13, 1220.25 436.76 C 1217.20 442.38, 1215.44 446.08, 1212.11 452.90 C 1208.78 459.72, 1206.84 463.95, 1203.61 470.85 C 1200.39 477.76, 1198.62 481.53, 1195.99 487.41 C 1193.36 493.28, 1191.83 496.29, 1190.47 500.21 C 1189.12 504.13, 1188.87 505.75, 1189.22 507.00 C 1189.57 508.26, 1190.86 508.31, 1192.21 506.49 C 1193.56 504.67, 1194.04 502.41, 1195.97 497.91 C 1197.90 493.40, 1199.26 489.98, 1201.88 483.96 C 1204.49 477.94, 1206.39 474.19, 1209.04 467.81 C 1211.69 461.43, 1213.24 457.92, 1215.12 452.06 C 1217.00 446.20, 1218.07 443.31, 1218.42 438.50 C 1218.77 433.68, 1218.83 431.31, 1216.87 428.00 C 1214.91 424.69, 1213.00 423.54, 1208.61 421.95 C 1204.22 420.35, 1201.11 420.29, 1194.92 420.03 C 1188.74 419.76, 1184.79 420.29, 1177.68 420.62 C 1170.58 420.94, 1166.68 421.60, 1159.40 421.65 C 1152.12 421.71, 1147.86 421.41, 1141.29 420.89 C 1134.71 420.38, 1131.24 420.04, 1126.53 419.08 C 1121.82 418.13, 1120.17 416.76, 1117.74 416.11 C 1115.31 415.45, 1114.67 415.66, 1114.37 415.81 C 1114.07 415.96, 1114.55 416.12, 1116.24 416.84 C 1117.93 417.55, 1119.77 417.66, 1122.83 419.39 C 1125.89 421.11, 1128.10 422.08, 1131.53 425.46 C 1134.96 428.84, 1137.17 431.35, 1139.98 436.29 C 1142.78 441.23, 1144.39 444.48, 1145.56 450.15 C 1146.72 455.82, 1146.80 458.82, 1145.78 464.63 C 1144.76 470.44, 1143.51 473.78, 1140.47 479.21 C 1137.43 484.63, 1135.20 487.60, 1130.59 491.74 C 1125.97 495.88, 1122.89 497.62, 1117.39 499.89 C 1111.88 502.16, 1108.62 502.81, 1103.08 503.10 C 1097.53 503.39, 1094.49 502.99, 1089.67 501.34 C 1084.85 499.68, 1082.38 498.20, 1078.96 494.83 C 1075.53 491.47, 1074.13 489.13, 1072.54 484.51 C 1070.95 479.90, 1070.61 476.93, 1070.99 471.75 C 1071.37 466.57, 1072.33 463.39, 1074.44 458.61 C 1076.55 453.82, 1078.37 451.50, 1081.53 447.84 C 1084.70 444.18, 1086.86 442.39, 1090.28 440.33 C 1093.70 438.27, 1095.82 438.20, 1098.65 437.53 C 1101.47 436.86, 1102.40 437.26, 1104.40 436.98 C 1106.40 436.71, 1107.73 436.86, 1108.65 436.15 C 1109.57 435.43, 1109.85 434.36, 1109.02 433.41"
				style="stroke: black; fill: black;"></path>
			<path
				d="M 1303.54,311.59 C 1302.62 312.06, 1301.77 312.38, 1300.98 314.64 C 1300.20 316.91, 1300.36 318.45, 1299.62 322.92 C 1298.88 327.38, 1298.48 330.21, 1297.28 336.98 C 1296.09 343.75, 1295.30 347.77, 1293.66 356.76 C 1292.03 365.76, 1290.88 371.13, 1289.11 381.95 C 1287.34 392.76, 1286.40 398.95, 1284.81 410.83 C 1283.23 422.71, 1282.32 429.32, 1281.20 441.36 C 1280.08 453.40, 1279.45 459.86, 1279.21 471.02 C 1278.98 482.18, 1278.96 487.93, 1280.02 497.16 C 1281.09 506.40, 1282.33 510.50, 1284.54 517.21 C 1286.76 523.92, 1288.53 526.64, 1291.10 530.71 C 1293.68 534.78, 1295.86 536.46, 1297.42 537.57 C 1298.98 538.68, 1299.75 537.91, 1298.92 536.26 C 1298.09 534.62, 1295.72 533.31, 1293.27 529.35 C 1290.82 525.40, 1288.95 522.97, 1286.67 516.49 C 1284.39 510.00, 1283.02 506.03, 1281.86 496.94 C 1280.70 487.86, 1280.68 482.14, 1280.87 471.05 C 1281.05 459.97, 1281.66 453.51, 1282.78 441.51 C 1283.90 429.51, 1284.82 422.90, 1286.46 411.05 C 1288.10 399.20, 1289.07 393.03, 1290.96 382.26 C 1292.85 371.49, 1294.05 366.14, 1295.93 357.21 C 1297.81 348.28, 1298.73 344.29, 1300.35 337.62 C 1301.98 330.95, 1302.93 328.21, 1304.06 323.85 C 1305.18 319.49, 1305.65 318.15, 1305.96 315.84 C 1306.27 313.52, 1306.11 313.14, 1305.62 312.29 C 1305.14 311.45, 1304.47 311.12, 1303.54 311.59"
				style="stroke: black; fill: black;"></path>
			<path
				d="M 1384.60,460.94 C 1384.46 459.63, 1383.83 458.13, 1382.02 456.41 C 1380.20 454.69, 1378.78 453.34, 1375.52 452.35 C 1372.26 451.37, 1369.98 450.86, 1365.70 451.47 C 1361.43 452.08, 1358.89 452.82, 1354.16 455.39 C 1349.43 457.96, 1346.73 459.89, 1342.05 464.32 C 1337.38 468.75, 1334.76 471.62, 1330.80 477.54 C 1326.83 483.45, 1324.76 487.23, 1322.21 493.90 C 1319.67 500.57, 1318.66 504.34, 1318.06 510.87 C 1317.45 517.40, 1317.39 521.18, 1319.17 526.53 C 1320.95 531.88, 1322.77 534.62, 1326.96 537.63 C 1331.15 540.65, 1334.20 541.54, 1340.12 541.59 C 1346.04 541.63, 1349.66 540.99, 1356.55 537.88 C 1363.44 534.78, 1367.49 532.27, 1374.57 526.07 C 1381.65 519.86, 1385.17 515.70, 1391.97 506.84 C 1398.76 497.98, 1402.37 492.57, 1408.54 481.77 C 1414.71 470.97, 1417.77 464.69, 1422.81 452.85 C 1427.84 441.00, 1430.05 434.43, 1433.70 422.53 C 1437.35 410.64, 1438.80 404.51, 1441.04 393.38 C 1443.29 382.24, 1444.13 376.37, 1444.94 366.85 C 1445.76 357.32, 1445.56 352.52, 1445.12 345.75 C 1444.68 338.98, 1444.52 335.71, 1442.75 333.00 C 1440.98 330.28, 1438.51 329.88, 1436.26 332.16 C 1434.01 334.45, 1433.25 337.37, 1431.50 344.43 C 1429.75 351.48, 1428.85 356.59, 1427.52 367.45 C 1426.19 378.32, 1425.63 385.34, 1424.85 398.75 C 1424.08 412.17, 1423.76 419.92, 1423.66 434.52 C 1423.55 449.12, 1423.64 457.15, 1424.34 471.77 C 1425.04 486.40, 1425.47 494.59, 1427.17 507.63 C 1428.86 520.68, 1429.98 527.19, 1432.82 536.99 C 1435.66 546.79, 1439.36 552.84, 1441.36 556.65 C 1443.35 560.46, 1444.20 560.04, 1442.77 556.03 C 1441.34 552.02, 1437.05 546.30, 1434.21 536.59 C 1431.36 526.87, 1430.27 520.42, 1428.56 507.45 C 1426.85 494.47, 1426.36 486.29, 1425.66 471.71 C 1424.95 457.13, 1424.87 449.10, 1425.03 434.53 C 1425.19 419.96, 1425.54 412.22, 1426.45 398.86 C 1427.37 385.50, 1428.07 378.48, 1429.60 367.73 C 1431.13 356.98, 1432.28 351.84, 1434.10 345.10 C 1435.92 338.36, 1437.48 336.20, 1438.68 334.05 C 1439.89 331.89, 1439.33 331.94, 1440.14 334.32 C 1440.95 336.70, 1442.15 339.46, 1442.74 345.94 C 1443.34 352.41, 1443.76 357.28, 1443.11 366.71 C 1442.46 376.13, 1441.66 381.99, 1439.49 393.07 C 1437.32 404.15, 1435.89 410.26, 1432.28 422.10 C 1428.66 433.94, 1426.45 440.48, 1421.43 452.26 C 1416.40 464.04, 1413.34 470.28, 1407.16 480.98 C 1400.99 491.67, 1397.35 497.05, 1390.55 505.74 C 1383.76 514.44, 1380.19 518.50, 1373.18 524.46 C 1366.18 530.43, 1362.14 532.71, 1355.53 535.56 C 1348.93 538.41, 1345.51 538.79, 1340.16 538.71 C 1334.80 538.63, 1332.37 537.79, 1328.74 535.17 C 1325.10 532.55, 1323.56 530.41, 1321.98 525.60 C 1320.40 520.79, 1320.29 517.27, 1320.85 511.13 C 1321.41 504.98, 1322.31 501.28, 1324.77 494.88 C 1327.24 488.49, 1329.28 484.79, 1333.17 479.15 C 1337.06 473.52, 1339.69 470.76, 1344.23 466.69 C 1348.78 462.62, 1351.52 460.89, 1355.90 458.82 C 1360.29 456.75, 1362.63 456.45, 1366.15 456.34 C 1369.68 456.23, 1371.04 457.29, 1373.52 458.26 C 1376.00 459.22, 1376.72 460.21, 1378.56 461.15 C 1380.39 462.10, 1381.48 463.01, 1382.69 462.96 C 1383.89 462.92, 1384.73 462.25, 1384.60 460.94"
				style="stroke: black; fill: black;"></path>
		</svg>